<?xml version="1.0" encoding="iso-8859-1"?>
<!-- Generator: Adobe Illustrator 19.0.0, SVG Export Plug-In . SVG Version: 6.00 Build 0)  -->
<svg version="1.1" id="Layer_1" xmlns="http://www.w3.org/2000/svg" xmlns:xlink="http://www.w3.org/1999/xlink" x="0px" y="0px"
	 viewBox="0 0 484.699 484.699" style="enable-background:new 0 0 484.699 484.699;" xml:space="preserve">
<g id="XMLID_808_">
	<g id="XMLID_732_">
		<circle style="fill:#F7931E;" cx="333.231" cy="196.909" r="143.895"/>
	</g>
	<g id="XMLID_777_">
		<circle style="fill:#FBB03B;" cx="306.724" cy="200.696" r="117.388"/>
	</g>
	<g id="XMLID_810_">
		<polygon style="fill:#FFFFFF;" points="219.629,159.042 204.482,159.042 204.482,120.939 219.629,113.601 		"/>
	</g>
	<g id="XMLID_450_">
		<path style="fill:#E9483D;" d="M148.19,151.468h6.574c77.651,0,140.6,62.949,140.6,140.6v139.617H147.173
			c-77.099,0-139.6-62.501-139.6-139.6l0,0C7.573,214.425,70.53,151.468,148.19,151.468z"/>
	</g>
	<g id="XMLID_645_">
		<circle style="fill:#ED6D64;" cx="128.748" cy="272.643" r="121.175"/>
	</g>
	<g id="XMLID_696_">
		<polygon style="fill:#FFFFFF;" points="30.293,355.951 13.008,336.24 13.008,231.439 30.293,219.629 		"/>
	</g>
	<g id="XMLID_449_">
		<g id="XMLID_430_">
			<path style="fill:#1D1D1B;" d="M333.231,45.44c-62.799,0-118.579,38.439-141.149,96.419c-12.931-3.603-26.55-5.537-40.614-5.537
				C67.948,136.322,0,204.27,0,287.79s67.948,151.469,151.468,151.469h151.469v-90.881h30.294
				c83.52,0,151.468-67.948,151.468-151.468C484.699,113.389,416.751,45.44,333.231,45.44z M287.79,424.112H151.468
				c-75.168,0-136.322-61.154-136.322-136.322S76.3,151.468,151.468,151.468S287.79,212.622,287.79,287.79V424.112z
				 M333.231,333.231h-30.294V287.79c0-64.121-40.052-119.059-96.45-141.123c20.488-51.787,70.477-86.081,126.744-86.081
				c75.168,0,136.322,61.154,136.322,136.322C469.553,272.077,408.399,333.231,333.231,333.231z"/>
			<g id="XMLID_428_">
				<g id="XMLID_431_">
					<path style="fill:#1D1D1B;" d="M110.513,265.044h15.324v8.272c0,3.617-0.429,6.305-1.287,8.069
						c-0.862,1.764-2.737,4.094-5.628,6.986l-9.899,9.9c-2.082,2.259-3.121,5.063-3.121,8.405c0,3.347,1.087,6.128,3.254,8.343
						c2.171,2.215,4.974,3.321,8.409,3.321s6.305-1.061,8.613-3.188c2.304-2.123,3.635-4.948,3.998-8.476h16.412
						c-0.906,8.047-4.049,14.356-9.426,18.919c-5.381,4.567-12.092,6.849-20.139,6.849s-14.6-2.193-19.662-6.579
						c-5.063-4.382-7.592-10.51-7.592-18.375c0-5.425,1.49-9.944,4.475-13.56c1.716-2.167,3.025-3.705,3.931-4.611
						c0.902-0.902,2.104-2.052,3.594-3.458c1.49-1.398,2.755-2.618,3.798-3.661c1.035-1.039,1.875-1.964,2.507-2.781
						c1.627-1.897,2.441-4.652,2.441-8.269v-6.106H110.513z M117.906,234.943c2.847,0,5.31,0.973,7.389,2.914
						c2.078,1.945,3.121,4.293,3.121,7.052s-1.017,5.133-3.051,7.119c-2.034,1.99-4.478,2.984-7.326,2.984s-5.31-0.973-7.389-2.918
						c-2.082-1.941-3.121-4.29-3.121-7.052c0-2.755,1.017-5.129,3.051-7.119C112.618,235.937,115.058,234.943,117.906,234.943z"/>
				</g>
				<g id="XMLID_441_">
					<path style="fill:#1D1D1B;" d="M192.423,302.064h-15.324v-8.269c0-3.617,0.425-6.309,1.287-8.069
						c0.858-1.764,2.733-4.09,5.628-6.986l9.899-9.9c2.078-2.259,3.117-5.063,3.117-8.405c0-3.347-1.084-6.124-3.254-8.343
						c-2.171-2.211-4.974-3.321-8.405-3.321c-3.439,0-6.309,1.065-8.613,3.188s-3.639,4.948-4.001,8.476H156.35
						c0.902-8.047,4.046-14.352,9.426-18.919c5.377-4.563,12.089-6.849,20.135-6.849c8.047,0,14.6,2.193,19.666,6.579
						c5.059,4.386,7.592,10.51,7.592,18.375c0,5.421-1.49,9.944-4.475,13.56c-1.719,2.167-3.029,3.705-3.931,4.608
						c-0.906,0.906-2.104,2.06-3.594,3.461c-1.494,1.401-2.759,2.622-3.798,3.661s-1.879,1.919-2.507,2.644
						c-1.627,1.989-2.441,4.792-2.441,8.405L192.423,302.064L192.423,302.064z M185.031,332.169c-2.847,0-5.31-0.969-7.392-2.914
						c-2.078-1.941-3.117-4.293-3.117-7.052c0-2.755,1.017-5.129,3.051-7.119s4.475-2.984,7.322-2.984s5.31,0.973,7.392,2.918
						c2.078,1.945,3.117,4.293,3.117,7.048c0,2.759-1.017,5.133-3.051,7.122C190.319,331.178,187.879,332.169,185.031,332.169z"/>
				</g>
			</g>
		</g>
		<g id="XMLID_445_">
			<g id="XMLID_446_">
				<rect x="299.025" y="189.336" style="fill:#1D1D1B;" width="15.147" height="15.146"/>
			</g>
			<g id="XMLID_447_">
				<rect x="329.319" y="189.336" style="fill:#1D1D1B;" width="15.147" height="15.146"/>
			</g>
			<g id="XMLID_448_">
				<rect x="359.613" y="189.336" style="fill:#1D1D1B;" width="15.146" height="15.146"/>
			</g>
		</g>
	</g>
</g>
<g>
</g>
<g>
</g>
<g>
</g>
<g>
</g>
<g>
</g>
<g>
</g>
<g>
</g>
<g>
</g>
<g>
</g>
<g>
</g>
<g>
</g>
<g>
</g>
<g>
</g>
<g>
</g>
<g>
</g>
</svg>
